<?xml version="1.0" encoding="utf-8"?>
<!-- Generator: Adobe Illustrator 22.1.0, SVG Export Plug-In . SVG Version: 6.00 Build 0)  -->
<svg version="1.1" id="Layer_1" xmlns="http://www.w3.org/2000/svg" xmlns:xlink="http://www.w3.org/1999/xlink" x="0px" y="0px"
	 viewBox="0 0 1792 1792" style="enable-background:new 0 0 1792 1792;" xml:space="preserve">
<style type="text/css">
	.st0{fill:#FFFFFF;stroke:#000000;stroke-miterlimit:10;}
	.st1{fill:#FD7E14;}
</style>
<circle class="st0" cx="896" cy="859.5" r="602"/>
<path class="st1" d="M1293,1139l102-102c12.7-12.7,19-27.7,19-45s-6.3-32.3-19-45L941,493c-12.7-12.7-27.7-19-45-19s-32.3,6.3-45,19
	L397,947c-12.7,12.7-19,27.7-19,45s6.3,32.3,19,45l102,102c12.7,12.7,27.7,19,45,19s32.3-6.3,45-19l307-307l307,307
	c12.7,12.7,27.7,19,45,19S1280.3,1151.7,1293,1139z M1664,896c0,139.3-34.3,267.8-103,385.5s-161.8,210.8-279.5,279.5
	s-246.2,103-385.5,103s-267.8-34.3-385.5-103S299.7,1399.2,231,1281.5S128,1035.3,128,896s34.3-267.8,103-385.5
	S392.8,299.7,510.5,231S756.7,128,896,128s267.8,34.3,385.5,103s210.8,161.8,279.5,279.5S1664,756.7,1664,896z"/>
</svg>
