<?xml version="1.0" encoding="iso-8859-1"?>
<!-- Generator: Adobe Illustrator 16.0.0, SVG Export Plug-In . SVG Version: 6.00 Build 0)  -->
<!DOCTYPE svg PUBLIC "-//W3C//DTD SVG 1.1//EN" "http://www.w3.org/Graphics/SVG/1.1/DTD/svg11.dtd">
<svg xmlns="http://www.w3.org/2000/svg" xmlns:xlink="http://www.w3.org/1999/xlink" version="1.1" id="Capa_1" x="0px" y="0px" width="512px" height="512px" viewBox="0 0 915.322 915.322" style="enable-background:new 0 0 915.322 915.322;" xml:space="preserve">
<g>
	<g>
		<path d="M560.232,151.919c5.858,5.858,15.354,5.858,21.213,0l10.606-10.607c5.857-5.858,5.857-15.355,0-21.213l-35.008-35.008    c-5.856-5.858-15.354-5.858-21.213,0l-10.606,10.607c-5.856,5.858-5.856,15.355,0,21.213L560.232,151.919z" fill="#e16423"/>
		<path d="M879.109,85.091l-35.009,35.008c-5.858,5.858-5.858,15.355,0,21.213l10.605,10.607c5.859,5.858,15.354,5.858,21.215,0    l35.008-35.008c5.857-5.858,5.857-15.355,0-21.213l-10.606-10.607C894.465,79.233,884.967,79.233,879.109,85.091z" fill="#e16423"/>
		<path d="M695.666,28.198v49.509c0,8.284,6.717,15,15,15h15c8.283,0,15-6.716,15-15V28.198c0-8.284-6.717-15-15-15h-15    C702.381,13.198,695.666,19.914,695.666,28.198z" fill="#e16423"/>
		<path d="M419.984,29.697c-29.039,4.989-211.234,40.798-243.769,47.361c-37.332,7.531-64.172,40.334-64.172,78.418v101.073    c0,97.734,80.229,176.964,177.964,176.964c97.733,0,175.963-79.23,175.963-176.964c0-6.225,0-12.689,0-18.849    c0-47.813,0-169.246,0-169.246C465.971,44.071,444.015,25.568,419.984,29.697z" fill="#e16423"/>
		<path d="M718.166,500.511H640.24c0,43.037,34.887,77.925,77.924,77.925l0,0c43.037,0,77.926-34.888,77.926-77.925H718.166z" fill="#e16423"/>
		<path d="M717.137,121.674c-81.676,0.555-146.946,66.305-146.936,147.982c0.004,29.395,8.588,56.781,23.373,79.806    c5.033,7.84,10.092,15.665,14.94,23.62l9.521,15.619c14.908,24.46,22.795,52.554,22.795,81.199v0.42h77.334h77.334v-0.42    c0-28.646,7.887-56.739,22.795-81.199l8.236-13.514c4.879-8.002,9.78-15.992,14.967-23.799    c15.561-23.423,24.631-51.528,24.631-81.755C866.129,187.573,799.326,121.115,717.137,121.674z" fill="#e16423"/>
		<path d="M500.014,482.653h-70.188c-13.927,0-26.021,9.584-29.206,23.143l-41.407,176.347    c-3.917,16.68-13.453,30.846-26.311,40.713c2.854-15.133,3.476-30.588,1.844-45.875c-0.711-6.662-2.011-13.25-3.69-19.736    l-28.593-110.369l20.709-45.703c3.932-8.678-2.413-18.52-11.94-18.52h-21.224h-21.225c-9.526,0-15.872,9.842-11.94,18.52    l20.709,45.703l-28.593,110.368c-1.68,6.486-2.98,13.074-3.691,19.736c-1.631,15.287-1.01,30.742,1.844,45.875    c-12.857-9.867-22.393-24.033-26.31-40.713l-41.408-176.346c-3.184-13.559-15.279-23.143-29.206-23.143H80    c-44.183,0-80,35.818-80,80v309.471c0,16.566,13.431,30,30,30h260.007h260.006c16.568,0,30-13.434,30-30V562.653    C580.014,518.472,544.197,482.653,500.014,482.653z" fill="#e16423"/>
	</g>
</g>
<g>
</g>
<g>
</g>
<g>
</g>
<g>
</g>
<g>
</g>
<g>
</g>
<g>
</g>
<g>
</g>
<g>
</g>
<g>
</g>
<g>
</g>
<g>
</g>
<g>
</g>
<g>
</g>
<g>
</g>
</svg>
